<?xml version="1.0" encoding="iso-8859-1"?>
<!-- Generator: Adobe Illustrator 18.0.0, SVG Export Plug-In . SVG Version: 6.00 Build 0)  -->
<!DOCTYPE svg PUBLIC "-//W3C//DTD SVG 1.1//EN" "http://www.w3.org/Graphics/SVG/1.1/DTD/svg11.dtd">
<svg version="1.1" id="Capa_1" xmlns="http://www.w3.org/2000/svg" xmlns:xlink="http://www.w3.org/1999/xlink" x="0px" y="0px"
	 viewBox="0 0 410 410" style="enable-background:new 0 0 410 410;" xml:space="preserve">
<g>
	<path d="M268.912,79.489L205,62.817l-63.913,16.672v21.305H89.678v246.389h68.699v-77.189h38.285v77.189h16.674v-77.189h38.285
		v77.189h68.7V100.794h-51.409V79.489z M134.602,314.456h-25.935v-53.727h25.935V314.456z M134.602,247.763h-25.935v-53.725h25.935
		V247.763z M134.602,181.071h-25.935v-53.723h25.935V181.071z M190.179,247.763h-25.935v-53.725h25.935V247.763z M190.179,181.071
		h-25.935v-53.723h25.935V181.071z M245.756,247.763H219.82v-53.725h25.936V247.763z M245.756,181.071H219.82v-53.723h25.936
		V181.071z M275.397,127.349h25.935v53.723h-25.935V127.349z M275.397,194.038h25.935v53.725h-25.935V194.038z M275.397,260.729
		h25.935v53.727h-25.935V260.729z"/>
	<path d="M0,347.183h72.389V160.075H0V347.183z M22.986,186.628h27.789v55.885H22.986V186.628z M22.986,258.88h27.789v55.883H22.986
		V258.88z"/>
	<path d="M337.61,160.075v187.107H410V160.075H337.61z M387.012,314.763h-27.787V258.88h27.787V314.763z M387.012,242.513h-27.787
		v-55.885h27.787V242.513z"/>
</g>
<g>
</g>
<g>
</g>
<g>
</g>
<g>
</g>
<g>
</g>
<g>
</g>
<g>
</g>
<g>
</g>
<g>
</g>
<g>
</g>
<g>
</g>
<g>
</g>
<g>
</g>
<g>
</g>
<g>
</g>
</svg>
