<?xml version="1.0" encoding="iso-8859-1"?>
<!-- Generator: Adobe Illustrator 19.0.0, SVG Export Plug-In . SVG Version: 6.00 Build 0)  -->
<svg version="1.1" id="Layer_1" xmlns="http://www.w3.org/2000/svg" xmlns:xlink="http://www.w3.org/1999/xlink" x="0px" y="0px"
	 viewBox="0 0 496 496" style="enable-background:new 0 0 496 496;" xml:space="preserve">
<g>
	<g>
		<path d="M480,208v-8c0-13.232-10.768-24-24-24h-20.584l29.696-81.656L421.24,43.168c1.768-3.904,2.76-8.136,2.76-12.544
			C424,13.744,410.256,0,393.376,0c-8.176,0-15.872,3.184-21.656,8.968L352,28.688l-10.344-10.344l-11.312,11.312l64,64
			l11.312-11.312L395.312,72l15.928-15.928l35.64,41.584L418.4,176H400c-13.232,0-24,10.768-24,24v8H272v-48
			c0-13.232-10.768-24-24-24h-96c-13.232,0-24,10.768-24,24v48H0v48h16v240h48V256h78.456l9.04,24.088
			c0.336,0.896,0.504,1.84,0.504,2.808V336h-32v8c0,20.952,16.248,38,36.768,39.672L120,486.616V496h16v-6.616l7.32-20.496
			l56.68-34.88l56.68,34.88l7.32,20.496V496h16v-9.384l-36.768-102.944C263.752,382,280,364.952,280,344v-8h-32v-53.104
			c0-0.968,0.168-1.912,0.504-2.808l9.04-24.088H344v240h136V256h16v-48H480z M403.72,40.968L384,60.688L363.312,40l19.72-19.72
			c2.72-2.72,6.488-4.28,10.344-4.28C401.44,16,408,22.56,408,30.624C408,34.472,406.44,38.248,403.72,40.968z M392,200
			c0-4.416,3.584-8,8-8h56c4.416,0,8,3.584,8,8v8h-72V200z M144,160c0-4.416,3.584-8,8-8h96c4.416,0,8,3.584,8,8v48H144V160z
			 M48,480H32V256h16V480z M151.92,444.808l11.824-33.112l20.992,12.92L151.92,444.808z M169.24,396.296L173.632,384h52.736
			l4.392,12.296L200,415.224L169.24,396.296z M248.08,444.808l-32.816-20.192l20.992-12.92L248.08,444.808z M262.632,352
			c-3.304,9.312-12.2,16-22.632,16h-80c-10.432,0-19.328-6.688-22.632-16H262.632z M166.48,274.464L159.552,256h80.904l-6.936,18.48
			c-1.008,2.696-1.52,5.536-1.52,8.416V336h-64v-53.104C168,280.016,167.488,277.176,166.48,274.464z M464,392h-16v16h16v72H360v-72
			h72v-16h-72V256h104V392z M480,240H16v-16h464V240z"/>
	</g>
</g>
<g>
</g>
<g>
</g>
<g>
</g>
<g>
</g>
<g>
</g>
<g>
</g>
<g>
</g>
<g>
</g>
<g>
</g>
<g>
</g>
<g>
</g>
<g>
</g>
<g>
</g>
<g>
</g>
<g>
</g>
</svg>
